<svg width="28" height="28" viewBox="0 0 28 28" fill="none" xmlns="http://www.w3.org/2000/svg">
<path d="M11 12.14L9.12 14L11 15.86C11.1409 16.0003 11.2527 16.167 11.329 16.3507C11.4053 16.5343 11.4445 16.7312 11.4445 16.93C11.4445 17.1288 11.4053 17.3257 11.329 17.5093C11.2527 17.693 11.1409 17.8597 11 18C10.7171 18.2787 10.337 18.4364 9.94 18.44C9.73964 18.443 9.54073 18.4057 9.35516 18.33C9.1696 18.2544 9.00118 18.1422 8.86 18L5.94 15.06C5.6591 14.7787 5.50132 14.3975 5.50132 14C5.50132 13.6025 5.6591 13.2213 5.94 12.94L8.86 10C9.14378 9.71622 9.52867 9.55679 9.93 9.55679C10.3313 9.55679 10.7162 9.71622 11 10C11.2838 10.2838 11.4432 10.6687 11.4432 11.07C11.4432 11.4713 11.2838 11.8562 11 12.14ZM19.14 10C18.9995 9.85949 18.8327 9.74802 18.6491 9.67198C18.4655 9.59593 18.2687 9.55679 18.07 9.55679C17.8713 9.55679 17.6745 9.59593 17.4909 9.67198C17.3073 9.74802 17.1405 9.85949 17 10C16.8595 10.1405 16.748 10.3073 16.672 10.4909C16.5959 10.6745 16.5568 10.8713 16.5568 11.07C16.5568 11.2687 16.5959 11.4655 16.672 11.6491C16.748 11.8327 16.8595 11.9995 17 12.14L18.88 14L17 15.86C16.8591 16.0003 16.7473 16.167 16.671 16.3507C16.5947 16.5343 16.5555 16.7312 16.5555 16.93C16.5555 17.1288 16.5947 17.3257 16.671 17.5093C16.7473 17.693 16.8591 17.8597 17 18C17.2829 18.2787 17.663 18.4364 18.06 18.44C18.2604 18.443 18.4593 18.4057 18.6448 18.33C18.8304 18.2544 18.9988 18.1422 19.14 18L22.06 15.08C22.3409 14.7987 22.4987 14.4175 22.4987 14.02C22.4987 13.6225 22.3409 13.2413 22.06 12.96L19.14 10ZM27.5 4V24C27.5 24.4596 27.4095 24.9148 27.2336 25.3394C27.0577 25.764 26.7999 26.1499 26.4749 26.4749C26.1499 26.7999 25.764 27.0577 25.3394 27.2336C24.9148 27.4095 24.4596 27.5 24 27.5H4C3.54037 27.5 3.08525 27.4095 2.66061 27.2336C2.23597 27.0577 1.85013 26.7999 1.52513 26.4749C1.20012 26.1499 0.942313 25.764 0.766422 25.3394C0.59053 24.9148 0.5 24.4596 0.5 24V4C0.5 3.07174 0.868749 2.1815 1.52513 1.52513C2.1815 0.868749 3.07174 0.5 4 0.5H24C24.4596 0.5 24.9148 0.59053 25.3394 0.766422C25.764 0.942313 26.1499 1.20012 26.4749 1.52513C26.7999 1.85013 27.0577 2.23597 27.2336 2.66061C27.4095 3.08525 27.5 3.54037 27.5 4ZM24.5 4C24.5 3.86739 24.4473 3.74021 24.3536 3.64645C24.2598 3.55268 24.1326 3.5 24 3.5H4C3.86739 3.5 3.74021 3.55268 3.64645 3.64645C3.55268 3.74021 3.5 3.86739 3.5 4V24C3.5 24.1326 3.55268 24.2598 3.64645 24.3536C3.74021 24.4473 3.86739 24.5 4 24.5H24C24.1326 24.5 24.2598 24.4473 24.3536 24.3536C24.4473 24.2598 24.5 24.1326 24.5 24V4Z" fill="#67F772"/>
</svg>
