<svg width="261" height="259" viewBox="0 0 261 259" fill="none" xmlns="http://www.w3.org/2000/svg">
<path d="M59.4 138.8C57.5333 138.8 55.6 138.8 53.6 138.8C51.6 138.8 49.6667 138.733 47.8 138.6C47.2667 138.867 46.6667 139.067 46 139.2C45.4667 139.333 44.9333 139.533 44.4 139.8C42.6667 143.267 40.2667 147.6 37.2 152.8C34.2667 157.867 30.6667 164 26.4 171.2C51.6 152.933 68.8 143.8 78 143.8C81.8667 143.8 84 145.333 84.4 148.4C84.4 150.933 83.5333 154.2 81.8 158.2C78.2 165 70.9333 170.867 60 175.8C49.6 180.467 39.6 182.8 30 182.8C33.8667 189.6 38.6 196.533 44.2 203.6C49.9333 210.533 56.7333 217.6 64.6 224.8C81.2667 240.267 96.1333 249.933 109.2 253.8C111.467 254.467 113.533 254.8 115.4 254.8C124.467 254.8 130.6 251.2 133.8 244C134.2 243.067 134.667 242.733 135.2 243C135.333 243.133 135.4 243.333 135.4 243.6C135.4 244 135.467 244.333 135.6 244.6C134.533 246.867 133.133 249.2 131.4 251.6C129.8 254 127.6 256.133 124.8 258C124.4 258.267 121.133 258.067 115 257.4C112.2 257 110 256.533 108.4 256C106.8 255.6 105.533 255.267 104.6 255C80.4667 248.467 52.4667 225.467 20.6 186C17.9333 190.267 15.2 195.533 12.4 201.8C9.6 207.933 6.53333 215 3.2 223C2.93333 223.667 2.53333 224 2 224C1.33333 224 0.666667 222.933 1.19209e-07 220.8C1.19209e-07 220.133 0.0666668 219.6 0.2 219.2C3.8 210.133 6.86667 202.467 9.4 196.2C12.0667 189.8 14.4 184.667 16.4 180.8C15.3333 177.333 15.3333 174.667 16.4 172.8C17.6 170.933 19.1333 170.2 21 170.6C24.7333 164.2 28.2 158.267 31.4 152.8C34.6 147.333 37.6 142.333 40.4 137.8H39.6C38.9333 137.667 38.0667 137.6 37 137.6C36.0667 137.467 35 137.267 33.8 137C31.9333 136.6 30.2667 135.4 28.8 133.4C27.3333 131.4 26.6 129.467 26.6 127.6C26.6 126.133 27.0667 124.933 28 124C31.3333 120.533 35.4667 117.6 40.4 115.2C45.3333 112.667 51 110.667 57.4 109.2C76.0667 81.2 94.7333 58.6667 113.4 41.6C132.2 24.5333 151.333 12.6 170.8 5.79998C181.333 2.19999 191.667 0.399995 201.8 0.399995C218.733 0.399995 233.067 5.13333 244.8 14.6C255.6 24.2 261 35.4 261 48.2C261 57.9333 257.6 67.2 250.8 76C243.6 85.7333 232.6 94.0667 217.8 101C164.2 126.2 111.4 138.8 59.4 138.8ZM47.8 135C50.0667 135.133 52.4 135.267 54.8 135.4C57.3333 135.4 59.9333 135.4 62.6 135.4C84.7333 135.4 107.467 132.733 130.8 127.4C161.067 119.933 189.133 108.867 215 94.2C242.733 78.0667 256.6 61.0667 256.6 43.2C256.6 31.8667 251 22.2667 239.8 14.4C228.467 6.53331 215.467 2.59998 200.8 2.59998C190.933 2.59998 181.4 4.53331 172.2 8.39999C149.8 17.7333 128.333 32.9333 107.8 54C87.2667 74.9333 67.2667 101.933 47.8 135ZM62.6 171.4C69.2667 166.333 72.4 161 72 155.4C72 151.533 69.7333 149.933 65.2 150.6C61.2 151.133 54.0667 154.733 43.8 161.4C35.4 167.133 29.6667 171.6 26.6 174.8C26.8667 175.467 27.2 176.333 27.6 177.4C28 178.333 28.6 179.467 29.4 180.8C29.8 180.933 30.6667 181 32 181C34.1333 181 36.4667 180.8 39 180.4C41.6667 180 44.5333 179.267 47.6 178.2C50.8 177.133 53.6667 176.067 56.2 175C58.7333 173.933 60.8667 172.733 62.6 171.4ZM41.6 134.6C44.1333 130.6 46.6 126.733 49 123C51.4 119.133 53.8 115.267 56.2 111.4C45.4 114.733 37.3333 119.6 32 126C30.9333 126.933 30.4 128.2 30.4 129.8C30.4 131.933 31.8667 133.2 34.8 133.6C36.6667 134 38.1333 134.267 39.2 134.4C40.4 134.533 41.2 134.6 41.6 134.6ZM109.3 221.4C109.3 222.2 108.3 223.067 106.3 224C104.3 224.8 102.433 225.2 100.7 225.2C99.9 225.2 99.3 224.933 98.9 224.4C98.5 223.733 98.0333 221.867 97.5 218.8C97.1 215.333 97.1 213.333 97.5 212.8C97.6333 212.4 98.0333 212 98.7 211.6C99.5 211.067 100.367 210.6 101.3 210.2C102.233 209.8 103.167 209.467 104.1 209.2C105.033 208.933 105.833 208.8 106.5 208.8C106.767 208.8 107.167 208.933 107.7 209.2C108.767 210.267 109.3 214.333 109.3 221.4Z" fill="#FF9C5D"/>
</svg>
